<svg xmlns="http://www.w3.org/2000/svg" version="1.1" xmlns:xlink="http://www.w3.org/1999/xlink" xmlns:svgjs="http://svgjs.dev/svgjs" width="100%" height="100%" viewBox="0 0 1000 600"><rect width="1000" height="600" x="0" y="0" fill="#1dc8e7"/><g><circle r="166.66666666666666" cx="370.48749796549475" cy="392.70971728141103" fill="#161b21" transform="matrix(0.6132838846583104,0,0,0.6132838846583103,0,59.15749337486481)"/><path d="M362.01358987584604 317.7096919324637L362.01358987584604 317.7096919324637Q399.9402281136146 317.7096919324637 418.3592161173718 336.68772270310814Q436.8076274246494 355.63633017023216 436.8076274246494 391.03256430524806L436.8076274246494 391.03256430524806Q436.8076274246494 414.10043426522515 427.80409654741345 431.37191343168763Q418.80056567017743 448.64339259815006 401.6173564142762 458.17654293875285Q384.46357046189524 467.70969327935563 360.10107514702145 467.70969327935563L360.10107514702145 467.70969327935563Q355.45219319080155 467.70969327935563 346.3309690994841 467.38603694063147Q337.23916831168697 467.0623806019073 330.4423851984794 467.0623806019073L330.4423851984794 467.0623806019073Q323.02771271134395 467.0623806019073 315.8190033488511 467.1800738159888Q308.6397172898786 467.2977670300703 304.167375154781 467.70969327935563L304.167375154781 467.70969327935563L304.167375154781 463.47273757242107Q311.37608451727385 463.0608113231358 315.0834207608416 461.76618596823903Q318.79075700440933 460.50098391686276 320.05595905578565 456.70537776273386Q321.35058441068236 452.8803483050846 321.35058441068236 445.2597126933065L321.35058441068236 445.2597126933065L321.35058441068236 340.1890958220332Q321.35058441068236 332.3330737820921 320.05595905578565 328.6257375385243Q318.79075700440933 324.91840129495654 315.0834207608416 323.5355060294987Q311.37608451727385 322.1820340675613 304.167375154781 321.94664763939824L304.167375154781 321.94664763939824L304.167375154781 317.7096919324637Q308.6397172898786 317.9450783606267 315.8190033488511 318.2393113958305Q323.02771271134395 318.56296773455466 330.0304589491941 318.35700460991205L330.0304589491941 318.35700460991205Q337.44513143632963 318.1510414852694 346.77231865228975 317.9450783606267Q356.0700825647295 317.7096919324637 362.01358987584604 317.7096919324637ZM356.7173952421779 321.53472139011296L356.7173952421779 321.53472139011296Q346.9782817769324 321.53472139011296 344.0065281213741 325.1243644195992Q341.0347744658159 328.7434307526058 341.0347744658159 339.74774626922755L341.0347744658159 339.74774626922755L341.0347744658159 445.6716389425918Q341.0347744658159 456.70537776273386 344.1242213354557 460.29502079222016Q347.1842449015751 463.88466382170634 356.9233583668205 463.88466382170634L356.9233583668205 463.88466382170634Q380.020651630318 463.88466382170634 392.7315187511217 455.52844562191876Q405.4423858719254 447.1722274221311 410.53261738095097 431.04825709296347Q415.6228488899765 414.95371006731614 415.6228488899765 391.85641680381866L415.6228488899765 391.85641680381866Q415.6228488899765 356.28364284768054 402.58832543044866 338.8944704671365Q389.5538019709208 321.53472139011296 356.7173952421779 321.53472139011296Z " fill="#f4a950" transform="matrix(0.6132838846583104,0,0,0.6132838846583103,0,59.15749337486481)"/><path d="M662.6220888465122 329.4327985727429L662.6220888465122 329.4327985727429Q690.2474647432713 329.4327985727429 703.6636674673762 343.2562023379947Q717.1013018252256 357.058174469502 717.1013018252256 382.84042986422753L717.1013018252256 382.84042986422753Q717.1013018252256 399.64283071997545 710.5432218993851 412.2231997280419Q703.9851419735448 424.8035687361083 691.4690678667121 431.74741806935106Q678.974425393624 438.69126740259384 661.2290326531147 438.69126740259384L661.2290326531147 438.69126740259384Q657.8428345214716 438.69126740259384 651.1990280606528 438.4555194314035Q644.5766532335788 438.21977146021317 639.6259458385816 438.21977146021317L639.6259458385816 438.21977146021317Q634.2251741349482 438.21977146021317 628.9744238675271 438.30549799519144Q623.7451052338504 438.3912245301698 620.4874969046748 438.69126740259384L620.4874969046748 438.69126740259384L620.4874969046748 435.60511214337487Q625.738247172096 435.30506927095075 628.4386330239126 434.3620773861894Q631.1390188757293 433.4405171351726 632.060579126746 430.67583638212227Q633.0035710115073 427.8897239953273 633.0035710115073 422.338930855482L633.0035710115073 422.338930855482L633.0035710115073 345.80656675359927Q633.0035710115073 340.0843205437974 632.060579126746 337.38393469198076Q631.1390188757293 334.6835488401641 628.4386330239126 333.676262054169Q625.738247172096 332.6904069019185 620.4874969046748 332.5189538319619L620.4874969046748 332.5189538319619L620.4874969046748 329.4327985727429Q623.7451052338504 329.60425164269947 628.9744238675271 329.81856798014525Q634.2251741349482 330.0543159513356 639.3259029661575 329.9042945151236L639.3259029661575 329.9042945151236Q644.7266746697908 329.7542730789115 651.5205025668215 329.60425164269947Q658.2928988301078 329.4327985727429 662.6220888465122 329.4327985727429ZM658.7643947724885 332.2189109595378L658.7643947724885 332.2189109595378Q651.6705240030335 332.2189109595378 649.5059289948313 334.8335702763762Q647.341333986629 337.4696612269591 647.341333986629 345.48509224743066L647.341333986629 345.48509224743066L647.341333986629 422.63897372790603Q647.341333986629 430.67583638212227 649.5916555298097 433.29049569896057Q651.8205454392456 435.9051550157989 658.9144162087005 435.9051550157989L658.9144162087005 435.9051550157989Q675.738248698193 435.9051550157989 684.99671447585 429.81857103233915Q694.255180253507 423.73198704887943 697.9628528913188 411.98745175685156Q701.6705255291306 400.2643480985682 701.6705255291306 383.44051560907565L701.6705255291306 383.44051560907565Q701.6705255291306 357.52967041188265 692.1763117802832 344.86357486883793Q682.6820980314358 332.2189109595378 658.7643947724885 332.2189109595378ZM736.2183191253878 392.69898138673267L791.9405668612867 392.69898138673267L791.9405668612867 401.6574042919657L736.2183191253878 401.6574042919657L736.2183191253878 392.69898138673267ZM930.4960790199739 329.4327985727429L930.4960790199739 329.4327985727429L930.4960790199739 332.5189538319619Q925.2453287525525 332.6904069019185 922.544942900736 333.676262054169Q919.8445570489193 334.6835488401641 918.9229967979024 337.38393469198076Q918.0014365468858 340.0843205437974 918.0014365468858 345.80656675359927L918.0014365468858 345.80656675359927L918.0014365468858 422.338930855482Q918.0014365468858 427.8897239953273 918.9229967979024 430.67583638212227Q919.8445570489193 433.4405171351726 922.544942900736 434.3620773861894Q925.2453287525525 435.30506927095075 930.4960790199739 435.60511214337487L930.4960790199739 435.60511214337487L930.4960790199739 438.69126740259384Q926.9598594521187 438.3912245301698 921.6233826497191 438.30549799519144Q916.3083374810642 438.21977146021317 910.9075657774308 438.21977146021317L910.9075657774308 438.21977146021317Q904.885276695205 438.21977146021317 899.6345264277836 438.30549799519144Q894.3837761603625 438.3912245301698 891.1475994649313 438.69126740259384L891.1475994649313 438.69126740259384L891.1475994649313 435.60511214337487Q896.3983497323527 435.30506927095075 899.0987355841694 434.3620773861894Q901.7991214359859 433.4405171351726 902.7206816870028 430.67583638212227Q903.6422419380194 427.8897239953273 903.6422419380194 422.338930855482L903.6422419380194 422.338930855482L903.6422419380194 337.4696612269591L904.2637593166121 337.91972553559515L866.4583573911793 439.4628062173986L863.9937195105529 439.4628062173986L825.1167358978912 339.31278172899266L825.1167358978912 420.79585322587246Q825.1167358978912 426.3466463657178 826.1025910501417 429.5185281599151Q827.1098778361368 432.66897832036784 830.1317381941221 433.976307978787Q833.1321669183628 435.30506927095075 839.1544560005887 435.60511214337487L839.1544560005887 435.60511214337487L839.1544560005887 438.69126740259384Q836.3683436137937 438.3912245301698 831.8891321611773 438.30549799519144Q827.4313523423054 438.21977146021317 823.402205198325 438.21977146021317L823.402205198325 438.21977146021317Q819.5445111243014 438.21977146021317 815.6225221490438 438.30549799519144Q811.6791015400418 438.3912245301698 809.0644422232033 438.69126740259384L809.0644422232033 438.69126740259384L809.0644422232033 435.60511214337487Q814.3151924906247 435.30506927095075 817.0155783424411 433.976307978787Q819.7159641942578 432.66897832036784 820.6375244452747 429.5185281599151Q821.5590846962914 426.3466463657178 821.5590846962914 420.79585322587246L821.5590846962914 420.79585322587246L821.5590846962914 345.80656675359927Q821.5590846962914 340.0843205437974 820.6375244452747 337.38393469198076Q819.7159641942578 334.6835488401641 817.0155783424411 333.676262054169Q814.3151924906247 332.6904069019185 809.0644422232033 332.5189538319619L809.0644422232033 332.5189538319619L809.0644422232033 329.4327985727429Q811.6791015400418 329.60425164269947 815.6225221490438 329.7542730789115Q819.5445111243014 329.9042945151236 823.402205198325 329.9042945151236L823.402205198325 329.9042945151236Q826.8098349637128 329.9042945151236 830.4317810665461 329.7542730789115Q834.0537271693795 329.60425164269947 836.518365050006 329.4327985727429L836.518365050006 329.4327985727429L871.5590862223885 421.71741347688925L868.9229952718056 422.9604482340747L903.6422419380194 329.9042945151236Q905.5067940737977 329.9042945151236 907.2856196745975 329.9042945151236Q909.0430136416528 329.9042945151236 910.9075657774308 329.9042945151236L910.9075657774308 329.9042945151236Q916.3083374810642 329.9042945151236 921.6233826497191 329.7542730789115Q926.9598594521187 329.60425164269947 930.4960790199739 329.4327985727429ZM1011.0575902658368 359.2227694777042L1011.0575902658368 359.2227694777042L1011.0575902658368 362.30892473692325Q1008.1214564428299 362.6089676093473 1005.6568185622036 364.92358405376154Q1003.1707490478327 367.2382004981758 1001.0275856733751 373.1104681441898L1001.0275856733751 373.1104681441898L975.7168262210303 439.4628062173986L973.0807352704473 439.4628062173986L944.705252192628 371.0958945721996Q941.7691183696211 365.09503712371816 938.9187110815924 363.7662758315544Q936.046872159819 362.45894617313525 934.2037516577855 362.45894617313525L934.2037516577855 362.45894617313525L934.2037516577855 359.2227694777042Q937.5899497894286 359.6942654200849 941.2976224272404 359.90858175753067Q945.0052950650522 360.144329728721 949.3344850814567 360.144329728721L949.3344850814567 360.144329728721Q954.1137394064972 360.144329728721 959.4287845751521 359.8442868562969Q964.7652613775517 359.5228123501283 969.3944942663802 359.2227694777042L969.3944942663802 359.2227694777042L969.3944942663802 362.45894617313525Q965.5368001923564 362.45894617313525 962.5149398343713 362.9947370167497Q959.5145111101303 363.55195949410864 958.7429722953257 366.2523453459253Q957.971433480521 368.9527311977419 960.5860927973592 375.425084588604L960.5860927973592 375.425084588604L979.5745202950541 422.48895229169403L978.6529600440372 422.7889951641181L996.22689971459 376.8181407820015Q999.1630335375969 369.10275263395397 996.8484170931827 366.01659737473494Q994.5338006487684 362.9304421155159 986.3683481920848 362.30892473692325L986.3683481920848 362.30892473692325L986.3683481920848 359.2227694777042Q990.3760637023206 359.3727909139162 993.0764495541373 359.5228123501283Q995.7768354059538 359.6942654200849 999.3130549738089 359.6942654200849L999.3130549738089 359.6942654200849Q1002.8707061754087 359.6942654200849 1005.7211134634374 359.5228123501283Q1008.5715207514659 359.3727909139162 1011.0575902658368 359.2227694777042ZM972.7806923980233 438.21977146021317L975.7168262210303 439.4628062173986L970.4660759536089 452.87900894150346Q967.529942130602 460.44437565333897 963.8222694927904 463.68055234877005L963.8222694927904 463.68055234877005Q961.3576316121639 465.99516879318435 957.971433480521 466.85243414296735Q954.5638037151332 467.70969949275036 951.799122962083 467.70969949275036L951.799122962083 467.70969949275036Q948.8629891390758 467.70969949275036 946.4626461596833 466.616686171777Q944.0837348140353 465.54510448454823 942.690678620638 463.46623601132427Q941.2976224272404 461.36593590435575 941.2976224272404 458.4512337150934L941.2976224272404 458.4512337150934Q941.2976224272404 454.74356107728164 943.4622174354427 452.4932395341011Q945.6268124436449 450.26434962466516 949.4845065176687 450.26434962466516L949.4845065176687 450.26434962466516Q952.7206832130996 450.26434962466516 955.0352996575139 452.10747012669873Q957.3499161019281 453.9720222624769 957.3499161019281 457.50824183033205L957.3499161019281 457.50824183033205Q957.3499161019281 460.14433278091497 956.1068813447428 461.8374318467365Q954.8852782213019 463.530530912558 953.1921791554803 464.4520911635748L953.1921791554803 464.4520911635748Q953.4922220279045 464.62354423353145 953.7279699990947 464.62354423353145Q953.9637179702852 464.62354423353145 954.1137394064972 464.62354423353145L954.1137394064972 464.62354423353145Q958.271476352945 464.62354423353145 961.5076530483759 461.7517053117582Q964.7652613775517 458.9012980237295 967.229899258178 452.57896606907946L967.229899258178 452.57896606907946L972.7806923980233 438.21977146021317ZM1105.0138726020602 327.2896351982852L1105.0138726020602 327.2896351982852Q1115.043877194522 327.2896351982852 1121.21618771296 330.2900639225259Q1127.3884982313982 333.2904926467666 1132.7892699350314 337.31963979074703L1132.7892699350314 337.31963979074703Q1134.8038435070216 338.86271742035655 1135.8754251942503 338.86271742035655L1135.8754251942503 338.86271742035655Q1138.8115590172574 338.86271742035655 1139.733119268274 329.4327985727429L1139.733119268274 329.4327985727429L1143.290770469874 329.4327985727429Q1142.9907275974497 335.1550447825448 1142.8192745274932 343.3204972392285Q1142.669253091281 351.50738132965665 1142.669253091281 364.92358405376154L1142.669253091281 364.92358405376154L1139.133033523426 364.92358405376154Q1138.0400202024525 358.45123066289943 1136.4969425728432 352.42894158067344Q1134.9538649432336 346.40665249844744 1131.4176453753785 342.0988941157876L1131.4176453753785 342.0988941157876Q1126.938433922762 336.37664790598564 1119.6731100833506 333.22619774553294Q1112.4292178776836 330.0543159513356 1104.7138297296362 330.0543159513356L1104.7138297296362 330.0543159513356Q1096.9984415815886 330.0543159513356 1090.7404045281723 333.8477151241256Q1084.5037991085005 337.6196826631711 1080.024587655884 344.71355343262593Q1075.5453762032676 351.8074242020807 1073.1664648576195 361.7731338933088Q1070.766121878227 371.7174119507923 1070.766121878227 384.2120544238804L1070.766121878227 384.2120544238804Q1070.766121878227 411.98745175685156 1079.72454478346 424.88929527108655Q1088.6615360549483 437.76970715157705 1107.4999421164312 437.76970715157705L1107.4999421164312 437.76970715157705Q1113.0507352562763 437.76970715157705 1117.1441773014906 436.14090298698926Q1121.21618771296 434.533530456146 1123.5308041573744 432.9904528265365L1123.5308041573744 432.9904528265365Q1126.4669379803813 430.9758792545463 1127.238476795186 429.1970536537465Q1128.010015609991 427.41822805294663 1128.010015609991 424.5035258636842L1128.010015609991 424.5035258636842L1128.010015609991 409.67283531243726Q1128.010015609991 403.3505033577872 1126.78841248655 400.2643480985682Q1125.5453777293646 397.17819283934915 1122.2234744989553 396.1066111521203Q1118.901571268546 395.01359783114697 1112.4292178776836 394.8635763949349L1112.4292178776836 394.8635763949349L1112.4292178776836 391.7774211357159Q1115.2153302644786 391.92744257192794 1118.901571268546 392.0131691069063Q1122.6092439063575 392.09889564188455 1126.7026859515718 392.1631905431183Q1130.7961279967856 392.2489170780966 1134.182326128429 392.2489170780966L1134.182326128429 392.2489170780966Q1139.283054959638 392.2489170780966 1143.3764970048521 392.09889564188455Q1147.4485074163217 391.92744257192794 1150.2346198031166 391.7774211357159L1150.2346198031166 391.7774211357159L1150.2346198031166 394.8635763949349Q1145.1338909719075 395.1850509011036 1143.7622664122546 397.3282142755612Q1142.369210218857 399.49280928376345 1142.369210218857 408.12975768282774L1142.369210218857 408.12975768282774L1142.369210218857 438.69126740259384L1139.283054959638 438.69126740259384Q1139.133033523426 436.07660808575554 1138.125746737431 432.9904528265365Q1137.1184599514359 429.9042975673175 1135.1038863794456 429.9042975673175L1135.1038863794456 429.9042975673175Q1134.182326128429 429.9042975673175 1133.260765877412 430.3543618759536Q1132.3392056263951 430.82585781833427 1130.024589181981 432.51895688415584L1130.024589181981 432.51895688415584Q1124.9238603507717 436.3766509581796 1119.2230457747144 438.60554086761556Q1113.5007995649125 440.8558624107961 1105.9568644868216 440.8558624107961L1105.9568644868216 440.8558624107961Q1082.0391612278743 440.8558624107961 1068.687253405003 426.26091983073945Q1055.3353455821318 411.68740888442744 1055.3353455821318 385.9265851234465L1055.3353455821318 385.9265851234465Q1055.3353455821318 367.8597178767685 1061.807698972994 354.74355802508774Q1068.3014839976006 341.6273981734069 1079.4887968122696 334.4478008689738Q1090.6761096269386 327.2896351982852 1105.0138726020602 327.2896351982852ZM1183.7108317121451 317.70969491445953L1183.7108317121451 317.70969491445953L1183.7108317121451 424.3320727937276Q1183.7108317121451 430.82585781833427 1186.4112175639618 433.1404742627485Q1189.1116034157783 435.4550907071628 1195.455367004173 435.4550907071628L1195.455367004173 435.4550907071628L1195.455367004173 438.69126740259384Q1192.81927605359 438.5412459663818 1187.5042308849352 438.30549799519144Q1182.1677540825356 438.0697500240011 1176.7669823789022 438.0697500240011L1176.7669823789022 438.0697500240011Q1171.5376637452257 438.0697500240011 1166.1368920415923 438.30549799519144Q1160.7361203379592 438.5412459663818 1158.1000293873763 438.69126740259384L1158.1000293873763 438.69126740259384L1158.1000293873763 435.4550907071628Q1164.4223613420263 435.4550907071628 1167.1227471938428 433.1404742627485Q1169.8231330456595 430.82585781833427 1169.8231330456595 424.3320727937276L1169.8231330456595 424.3320727937276L1169.8231330456595 336.22662646977363Q1169.8231330456595 329.28277713653085 1167.3584951650332 325.9608739061215Q1164.893857284407 322.6604023094567 1158.1000293873763 322.6604023094567L1158.1000293873763 322.6604023094567L1158.1000293873763 319.40279398028105Q1163.0507367823734 319.8742899226618 1167.679969671202 319.8742899226618L1167.679969671202 319.8742899226618Q1172.1377494900737 319.8742899226618 1176.231191535288 319.3384990790474Q1180.324633580502 318.80270823543293 1183.7108317121451 317.70969491445953ZM1239.583100884256 357.058174469502L1239.583100884256 357.058174469502Q1249.463084040506 357.058174469502 1257.3284936247655 361.3873644859064Q1265.193903209025 365.6951228685663 1269.9088626328319 374.95358864622335Q1274.6023904228941 384.2120544238804 1274.6023904228941 399.04274497512733L1274.6023904228941 399.04274497512733Q1274.6023904228941 413.8520038926297 1269.9088626328319 423.0247431353084Q1265.193903209025 432.2189140117317 1257.3284936247655 436.52667239439165Q1249.463084040506 440.8558624107961 1239.583100884256 440.8558624107961L1239.583100884256 440.8558624107961Q1229.8531391642184 440.8558624107961 1221.9020030449803 436.52667239439165Q1213.9722985594872 432.2189140117317 1209.2573391356802 423.0247431353084Q1204.5423797118735 413.8520038926297 1204.5423797118735 399.04274497512733L1204.5423797118735 399.04274497512733Q1204.5423797118735 384.2120544238804 1209.2573391356802 374.95358864622335Q1213.9722985594872 365.6951228685663 1221.9020030449803 361.3873644859064Q1229.8531391642184 357.058174469502 1239.583100884256 357.058174469502ZM1239.583100884256 360.144329728721L1239.583100884256 360.144329728721Q1230.774699415235 360.144329728721 1225.1596113741562 369.25277407016597Q1219.5230916993323 378.361218411611 1219.5230916993323 399.04274497512733L1219.5230916993323 399.04274497512733Q1219.5230916993323 419.70283990489907 1225.1596113741562 428.74698934511036Q1230.774699415235 437.76970715157705 1239.583100884256 437.76970715157705L1239.583100884256 437.76970715157705Q1248.3700707195324 437.76970715157705 1254.0065903943562 428.74698934511036Q1259.6431100691798 419.70283990489907 1259.6431100691798 399.04274497512733L1259.6431100691798 399.04274497512733Q1259.6431100691798 378.361218411611 1254.0065903943562 369.25277407016597Q1248.3700707195324 360.144329728721 1239.583100884256 360.144329728721ZM1334.3323536690289 357.058174469502L1334.3323536690289 357.058174469502Q1338.4900906154767 357.058174469502 1341.6619724096738 358.75127353532355Q1344.8124225701265 360.4658042348896 1346.5912481709267 363.16619008670625Q1348.3700737717263 365.86657593852294 1348.3700737717263 369.25277407016597L1348.3700737717263 369.25277407016597Q1348.3700737717263 373.1104681441898 1345.9697307923336 376.04660196719675Q1343.5908194466858 378.9827357902037 1339.5616723027056 378.9827357902037L1339.5616723027056 378.9827357902037Q1336.3254956072744 378.9827357902037 1333.860857726648 376.88243568323526Q1331.396219846022 374.8035672100113 1331.396219846022 370.94587313598754L1331.396219846022 370.94587313598754Q1331.396219846022 368.00973931298057 1333.0035923768653 365.9308708397566Q1334.6323965414529 363.8520023665327 1336.646970113443 362.6089676093473L1336.646970113443 362.6089676093473Q1335.5539567924695 361.0658899797378 1333.3893617842675 361.0658899797378L1333.3893617842675 361.0658899797378Q1326.9170083934052 361.0658899797378 1322.137754068365 365.9308708397566Q1317.3584997433243 370.79585169977554 1314.6581138915076 377.58967959680626Q1311.957728039691 384.383507493837 1311.957728039691 390.08432206989437L1311.957728039691 390.08432206989437L1311.957728039691 422.7889951641181Q1311.957728039691 430.3543618759536 1316.351212957329 432.9047262915582Q1320.7446978749672 435.4550907071628 1328.3100645868028 435.4550907071628L1328.3100645868028 435.4550907071628L1328.3100645868028 438.69126740259384Q1324.752413385203 438.5412459663818 1318.280059994341 438.30549799519144Q1311.7862749697342 438.0697500240011 1304.5423827640673 438.0697500240011L1304.5423827640673 438.0697500240011Q1299.2916324966461 438.0697500240011 1294.1266087642032 438.30549799519144Q1288.9615850317603 438.5412459663818 1286.3254940811773 438.69126740259384L1286.3254940811773 438.69126740259384L1286.3254940811773 435.4550907071628Q1292.669257669572 435.4550907071628 1295.3696435213888 433.1404742627485Q1298.0700293732054 430.82585781833427 1298.0700293732054 424.3320727937276L1298.0700293732054 424.3320727937276L1298.0700293732054 376.04660196719675Q1298.0700293732054 369.10275263395397 1295.5839598588343 365.7808494035446Q1293.1193219782083 362.45894617313525 1286.3254940811773 362.45894617313525L1286.3254940811773 362.45894617313525L1286.3254940811773 359.2227694777042Q1291.2762014761745 359.6942654200849 1295.9054343650032 359.6942654200849L1295.9054343650032 359.6942654200849Q1300.3846458176197 359.6942654200849 1304.4566562290893 359.1370429427259Q1308.550098274303 358.6012520991115 1311.957728039691 357.52967041188265L1311.957728039691 357.52967041188265L1311.957728039691 376.8181407820015Q1313.6508271055125 372.338929329385 1316.8012772659652 367.7954229755348Q1319.9731590601625 363.23048498794003 1324.4523705127792 360.144329728721Q1328.9315819653955 357.058174469502 1334.3323536690289 357.058174469502ZM1426.7455583756425 359.2227694777042L1426.7455583756425 359.2227694777042L1426.7455583756425 362.30892473692325Q1423.8308561863803 362.6089676093473 1421.3447866720094 364.92358405376154Q1418.8801487913831 367.2382004981758 1416.715553783181 373.1104681441898L1416.715553783181 373.1104681441898L1391.4262259645807 439.4628062173986L1388.7901350139975 439.4628062173986L1360.3932203024337 371.0958945721996Q1357.4785181131713 365.09503712371816 1354.6066791913981 363.7662758315544Q1351.7562719033695 362.45894617313525 1349.9131514013359 362.45894617313525L1349.9131514013359 362.45894617313525L1349.9131514013359 359.2227694777042Q1353.299349532979 359.6942654200849 1357.0070221707908 359.90858175753067Q1360.7146948086024 360.144329728721 1365.0224531912625 360.144329728721L1365.0224531912625 360.144329728721Q1369.8231391500474 360.144329728721 1375.1381843187025 359.8442868562969Q1380.4532294873572 359.5228123501283 1385.0824623761857 359.2227694777042L1385.0824623761857 359.2227694777042L1385.0824623761857 362.45894617313525Q1381.2247683021621 362.45894617313525 1378.2243395779215 362.9947370167497Q1375.2239108536808 363.55195949410864 1374.4523720388759 366.2523453459253Q1373.6808332240712 368.9527311977419 1376.2954925409097 375.425084588604L1376.2954925409097 375.425084588604L1395.2839200386045 422.48895229169403L1394.3409281538432 422.7889951641181L1411.9362994581404 376.8181407820015Q1414.8724332811473 369.10275263395397 1412.557816836733 366.01659737473494Q1410.2432003923188 362.9304421155159 1402.0563163018905 362.30892473692325L1402.0563163018905 362.30892473692325L1402.0563163018905 359.2227694777042Q1406.0854634458708 359.3727909139162 1408.7858492976875 359.5228123501283Q1411.4862351495042 359.6942654200849 1415.0224547173593 359.6942654200849L1415.0224547173593 359.6942654200849Q1418.5801059189591 359.6942654200849 1421.4305132069878 359.5228123501283Q1424.2809204950165 359.3727909139162 1426.7455583756425 359.2227694777042ZM1388.4900921415735 438.21977146021317L1391.4262259645807 439.4628062173986L1386.1754756971593 452.87900894150346Q1383.2393418741524 460.44437565333897 1379.5316692363406 463.68055234877005L1379.5316692363406 463.68055234877005Q1377.0670313557143 465.99516879318435 1373.6808332240712 466.85243414296735Q1370.2732034586836 467.70969949275036 1367.5085227056331 467.70969949275036L1367.5085227056331 467.70969949275036Q1364.5723888826262 467.70969949275036 1362.1720459032338 466.616686171777Q1359.7931345575857 465.54510448454823 1358.4000783641884 463.46623601132427Q1357.0070221707908 461.36593590435575 1357.0070221707908 458.4512337150934L1357.0070221707908 458.4512337150934Q1357.0070221707908 454.74356107728164 1359.1716171789928 452.4932395341011Q1361.336212187195 450.26434962466516 1365.193906261219 450.26434962466516L1365.193906261219 450.26434962466516Q1368.4300829566498 450.26434962466516 1370.744699401064 452.10747012669873Q1373.0593158454787 453.9720222624769 1373.0593158454787 457.50824183033205L1373.0593158454787 457.50824183033205Q1373.0593158454787 460.14433278091497 1371.816281088293 461.8374318467365Q1370.5946779648523 463.530530912558 1368.880147265286 464.4520911635748L1368.880147265286 464.4520911635748Q1369.2016217714547 464.62354423353145 1369.4373697426452 464.62354423353145Q1369.651686080091 464.62354423353145 1369.8231391500474 464.62354423353145L1369.8231391500474 464.62354423353145Q1373.9808760964954 464.62354423353145 1377.2170527919263 461.7517053117582Q1380.4532294873572 458.9012980237295 1382.9392990017284 452.57896606907946L1382.9392990017284 452.57896606907946L1388.4900921415735 438.21977146021317Z " fill="#161b21" transform="matrix(0.6132838846583104,0,0,0.6132838846583103,0,59.15749337486481)"/></g></svg>